v 6.952584743 4.530563354 39.86893463
vn -0.4418637156 0.08212374151 -0.8933152556
v -2.352403164 7.311255932 50.84263611
vn -0.9484836459 -0.3128512502 -0.05002901331
v 5.724870205 8.770212173 40.97733307
vn -0.1935980767 0.07880681008 -0.9779106379
v 0.1255912185 9.598325729 44.05743027
vn -0.3769843876 -0.7160634398 -0.5874826908
v -3.367684841 9.755377769 49.18872452
vn -0.9256772399 -0.3754238784 -0.04667537287
v 1.254689932 11.03427601 40.99351501
vn -0.363272965 -0.7977671623 -0.4812487066
v -2.456140041 6.606842518 52.67891693
vn -0.5194954872 0.8520402908 -0.06443411112
v 3.234151363 8.418504715 43.5613327
vn -0.6786544323 -0.381890595 -0.6273657084
v -0.764342308 10.68074703 41.90418625
vn -0.272179842 -0.8764855266 -0.3971035182
v 4.529102325 9.114165306 40.70727921
vn -0.6659010649 -0.359593302 -0.6536577344
v 5.75706625 -8.27507019 44.58179855
vn -0.3333705068 0.09255895019 -0.9382414222
v 5.460458279 3.376032114 40.71100998
vn -0.7068701386 -0.08097643405 -0.7026929855
v -5.734977722 5.260104656 48.18657303
vn 0.340144515 0.6958833933 -0.6324934959
v -0.0004941373481 -8.441180229 47.52933502
vn -0.09230990708 -0.08461185545 -0.9921289086
v -1.926429391 10.26549053 44.78364563
vn -0.4591725767 -0.8023679256 -0.3812692761
v -6.083535194 5.077710152 50.67581558
vn -0.157020092 0.9865637422 -0.04512895644
v -3.083845377 9.947107315 46.26054382
vn -0.6171094775 -0.6326079369 -0.4679563344
v -9.649209976 4.901927948 45.40725327
vn 0.3335751295 0.7774146199 -0.5332486033
v -2.49216938 -1.887260556 47.74608612
vn 0.2537305355 0.129264757 -0.9585986733
v -4.701776028 1.306486487 47.33005524
vn 0.1935008466 0.2605550885 -0.9458691478
v -8.487659454 5.600018978 49.53783035
vn 0.225168258 0.9534900784 -0.2003895789
v 12.04960442 -5.887483597 43.07749176
vn -0.2932126224 0.1083271727 -0.9498903155
v 10.62317657 -6.223872185 43.68862152
vn -0.2420953512 0.0786049515 -0.9670631289
v 11.17417526 -1.39899981 43.9640274
vn -0.2592359781 0.1161013246 -0.9588102698
v 7.529697895 0.3269737959 45.0080986
vn -0.3978821635 0.07050846517 -0.9147230983
v 5.324472427 1.749752998 44.14677048
vn -0.7383320928 -0.6664765477 0.1033186764
v 5.302073002 2.355093002 41.91948318
vn -0.8247134686 -0.5520698428 -0.1227461845
v 1.516190767 7.063986301 44.94818115
vn -0.7257040143 -0.5275378227 -0.4416531324
v 2.353850365 -4.94506979 46.60662079
vn -0.3060755432 0.1167690605 -0.9448189139
v -4.901882172 -8.212033272 43.80688095
vn -0.7890214324 -0.1158035398 0.6033529043
v 4.061167717 3.88357687 47.58432007
vn -0.4363428056 -0.1811496764 -0.8813567758
v 2.748531342 -9.333411217 46.0157814
vn -0.4532592893 0.04428085685 -0.8902781606
v -2.054008722 6.411973476 49.29788971
vn -0.3932876885 0.2424008697 -0.8868858814
v -7.983224869 1.88795507 44.19807434
vn 0.4278936684 0.5653399825 -0.7051934004
v -3.266625404 -9.091757774 46.25722504
vn 0.6199113131 -0.1501030475 -0.770181179
v -2.052095175 -6.450240135 46.8988266
vn 0.360329479 0.06929656118 -0.9302476048
v -4.751085758 -5.175467968 45.18482208
vn -0.735516727 -0.1676070839 0.6564472914
v -5.994603157 -5.114721775 42.81375122
vn 0.8082239628 0.1821166873 -0.5600066781
v -4.603256226 -5.137289047 45.05887985
vn 0.7388583422 0.1685756743 -0.6524343491
v -4.749130726 -8.196175575 43.68923569
vn 0.7698987126 0.07028139383 -0.6342842579
v -5.688793659 0.5602226257 44.72541809
vn 0.6336593628 0.4593464136 -0.6224762797
v -7.179238319 -0.2377829105 42.81073761
vn 0.7332994342 0.1793886423 -0.655813694
v 5.546691418 12.59001732 40.37814331
vn -0.4880300462 0.06994019449 -0.8700201511
v 4.797862053 13.25838566 41.04459381
vn -0.2610392272 -0.0976402536 -0.9603774548
v 1.52086401 11.65952492 41.67718124
vn -0.231504485 -0.0373775959 -0.9721155167
v 1.902943134 13.67818546 41.65541458
vn -0.376447916 0.1104103327 -0.919835031
v 5.601023674 11.53258991 40.48500061
vn -0.2700323164 -0.2017703652 -0.9414729476
v 4.234588146 13.55641842 40.18624878
vn -0.1865376532 -0.9062107205 -0.3794546425
v 3.366839886 13.40410805 41.23702621
vn -0.2223868817 -0.17406708 -0.9592938423
v 4.566015244 11.45084572 41.00263214
vn -0.3375570774 -0.02247327194 -0.9410367608
v -6.16146183 -5.154040337 42.91675949
vn -0.8609878421 -0.2088376582 0.4637744725
v -3.3820436 -9.074650764 46.40527725
vn -0.6239249706 0.04767498747 0.7800286412
v -2.130510569 -6.457172394 47.06100845
vn -0.3580504358 -0.06818374246 0.9312093258
v -7.31939888 -0.2901954353 42.93412399
vn -0.7572233081 -0.1775566638 0.6285590529
v -2.568561554 -1.919780135 47.90162659
vn -0.2486687601 -0.1233376339 0.9607037306
v -5.81507349 0.4726402462 44.84313202
vn -0.6314413548 -0.4544183016 0.6283198595
v -4.773479939 1.252295375 47.47774887
vn -0.187628895 -0.250952214 0.9496411681
v -8.079674721 1.774038076 44.33089828
vn -0.5326440334 -0.5712327957 0.624486506
v -9.705021858 4.753023624 45.48718262
vn -0.3638803363 -0.7705088258 0.5233615637
v -5.778268814 5.138392925 48.26617813
vn -0.3346317112 -0.691832602 0.6398353577
v 4.148621559 3.940205812 47.68571472
vn 0.4316906631 0.1828849316 0.8832871914
v -1.970653534 6.370330811 49.37391663
vn 0.4037159085 -0.2434869111 0.881888628
v 0.00489932904 -8.432470322 47.71461868
vn 0.08278207481 0.03138904274 0.996073246
v 2.411498308 -4.959441185 46.7913208
vn 0.3022366762 -0.1106257439 0.9467919469
v 2.83981967 -9.349066734 46.19303894
vn 0.4485462308 -0.1086938381 0.8871256709
v 5.469745159 2.448107481 41.95467377
vn 0.8329162598 0.5413324237 0.1149335355
v 5.567723274 3.388382435 40.84754181
vn 0.7131354213 0.06875526905 0.6976464391
v 1.638529539 7.15144825 45.04878235
vn 0.7230964303 0.5279083252 0.4454708695
v 5.829031467 -8.295161247 44.76600266
vn 0.3420754671 -0.1140541583 0.9327250719
v 7.606330395 0.337939024 45.1463356
vn 0.4055991769 -0.05532889813 0.9123749137
v 10.68098927 -6.242147446 43.87831497
vn 0.2471126765 -0.1039833799 0.963391304
v 11.23913956 -1.417114496 44.15140533
vn 0.3187199831 -0.06387382746 0.9456943274
v 5.475415707 1.864891291 44.13077164
vn 0.7720544338 0.62658149 -0.1064308062
v 12.13189697 -5.907225132 43.25870514
vn 0.4704785645 -0.1240980253 0.8736415505
v -6.060409069 4.888000011 50.68865204
vn 0.1579023302 -0.9852641225 0.06573823839
v -8.550578117 5.416527271 49.58653641
vn -0.3563885093 -0.8886660337 0.2885479033
v -2.957321882 10.06113338 46.33600235
vn 0.6077777743 0.6347803473 0.4771374166
v -2.323524952 6.527275562 52.69927597
vn 0.5318590403 -0.8379024863 0.1226594895
v -3.190225601 9.844691277 49.21177292
vn 0.8424420953 0.5197435617 0.1419785768
v -2.163872004 7.369749069 50.85858917
vn 0.9472587109 0.3113950491 0.07572349906
v -1.845673561 10.42931652 44.86132812
vn 0.3315223753 0.8821595907 0.3344957232
v 0.1939445436 9.741656303 44.1648674
vn 0.37969926 0.7128459811 0.5896431208
v -0.7218778133 10.85851192 41.97599792
vn 0.1807147264 0.9263495803 0.3304823935
v 3.343564272 8.500193596 43.67773819
vn 0.6804962754 0.3847901523 0.6235874891
v 4.605443001 9.172738075 40.82858276
vn 0.6817840338 0.3919182122 0.6177140474
v 1.314870477 11.19750404 41.08340073
vn 0.370719105 0.821066618 0.4340701699
v 5.754808903 8.759768486 41.15913391
vn 0.2519813776 -0.03590241075 0.9670658708
v 7.058499813 4.517022133 40.03804398
vn 0.5727965236 -0.08324249834 0.8154599071
v -9.67711544 4.827475548 45.44721985
vn -0.9516925216 0.1981272101 -0.2345782816
v -8.031449318 1.830996633 44.26448822
vn -0.7621290684 -0.03175022081 -0.6466460824
v -7.2493186 -0.2639891803 42.87243271
vn -0.646198988 -0.04123995081 -0.7620539069
v -6.07803297 -5.134381294 42.86525726
vn -0.5089305043 -0.2474220842 -0.8244829178
v -4.825505733 -8.204104424 43.74805832
vn -0.3736639917 -0.7348328233 -0.5660352707
v -3.324334383 -9.083204269 46.33124924
vn -0.0450985916 -0.9989614487 -0.006494382862
v 0.002202595817 -8.436824799 47.62197876
vn -0.05716159567 -0.99526757 0.07858134061
v 2.794175625 -9.341238976 46.10440826
vn -0.006673390046 -0.9964650869 -0.08374220133
v 5.793048859 -8.285115242 44.6739006
vn 0.3035879731 -0.9287564158 -0.2127107531
v 10.6520834 -6.233009815 43.78346634
vn 0.3056904376 -0.9317139983 -0.1961181909
v 12.09075069 -5.897354603 43.16809845
vn 0.9169867039 -0.08123088628 -0.3905597031
v 11.20665741 -1.408057094 44.05771637
vn 0.7569976449 0.6012049317 -0.2559436262
v 7.568014145 0.3324564099 45.0772171
vn 0.4730665684 0.7805039287 -0.4086827934
v 5.399943829 1.807322145 44.13877106
vn 0.5216859579 -0.5493916273 -0.6526964307
v 5.385909081 2.401600122 41.93707657
vn 0.5407013297 -0.7708530426 -0.3367901742
v 5.514090538 3.382207155 40.77927399
vn 0.5173043013 -0.7644717097 -0.3846806586
v 7.005542278 4.523792744 39.95349121
vn 0.8975090384 -0.01246889774 -0.4408197105
v 5.739839554 8.764989853 41.06823349
vn 0.84680444 0.4659255147 -0.2565846443
v 4.56727314 9.143451691 40.76793289
vn 0.3296341896 0.6800539494 -0.6548801064
v 1.284780145 11.1158905 41.03845978
vn -0.01833015308 0.5446649194 -0.8384534121
v -0.7431100011 10.76962948 41.94009018
vn -0.7272443175 0.4526652098 -0.5159553289
v -1.886051297 10.34740353 44.82248688
vn -0.7897836566 0.5302937031 -0.308269918
v -3.02058363 10.00411987 46.29827118
vn -0.6140720844 0.7794217467 -0.1241660267
v -3.278954983 9.800034523 49.20024872
vn -0.4556390941 0.7272107005 0.5133786798
v -2.258137703 7.340502262 50.85061264
vn -0.2141619325 0.6594572067 0.720590651
v -2.389832497 6.56705904 52.68909454
vn -0.2862403095 0.2044627517 0.9360883832
v -6.071971893 4.982854843 50.6822319
vn -0.426068604 0.003117043525 0.9046854973
v -8.519119263 5.508273125 49.56218338
vn -0.772634089 0.3673603833 0.5177671909
v 1.562380791 11.66003227 41.87207794
vn 0.1861447096 -0.01765259355 0.9823637605
v 4.65016222 11.44857693 41.17948914
vn 0.3283123076 -0.1014729962 0.9391028881
v 4.852777481 13.30394459 41.19424057
vn 0.2889702022 0.1515414119 0.9452679157
v 3.402908802 13.47194672 41.383358
vn 0.2126676589 0.2881509364 0.9336709976
v 1.956463337 13.67013168 41.8479538
vn 0.2487773746 0.05066453665 0.9672346711
v 4.260792255 13.74842358 40.23572159
vn 0.1717012227 0.9570690989 0.233532533
v 5.68848896 11.55511665 40.66344452
vn 0.5235728621 -0.07319349796 0.8488310575
v 5.651637554 12.59160709 40.54584885
vn 0.6056305766 0.02943426557 0.7952014208
v 1.929703236 13.6741581 41.75168228
vn -0.6982011795 0.7043349743 0.1281693429
v 1.5416224 11.65977859 41.7746315
vn -0.6153006554 -0.7744460106 0.1471001953
v 4.608088493 11.4497118 41.09106064
vn -0.02240352146 -0.9996985197 0.0100452872
v 5.644756317 11.54385281 40.57422256
vn 0.6398525238 -0.7154928446 -0.2804615796
v 5.599164486 12.59081173 40.46199417
vn 0.743134439 0.4767741859 -0.4695077538
v 4.825319767 13.28116512 41.1194191
vn 0.6728269458 0.5899080634 -0.4464441538
v 4.247690201 13.652421 40.21098328
vn -0.1233697832 0.4764068127 -0.8705265522
v 3.384874344 13.43802643 41.31019211
vn -0.282294631 0.8874419332 -0.3643577099
# mm_gid 0
g mmGroup0
f 8//8 6//6 10//10 
f 6//6 4//4 9//9 
f 3//3 1//1 12//12 
f 10//10 3//3 12//12 
f 8//8 28//28 4//4 
f 15//15 9//9 4//4 
f 8//8 10//10 12//12 
f 31//31 28//28 27//27 
f 28//28 8//8 12//12 
f 33//33 7//7 2//2 
f 33//33 2//2 17//17 
f 17//17 31//31 33//33 
f 28//28 31//31 17//17 
f 17//17 15//15 4//4 
f 6//6 8//8 4//4 
f 17//17 4//4 28//28 
f 17//17 2//2 5//5 
f 16//16 7//7 33//33 
f 33//33 13//13 16//16 
f 18//18 21//21 16//16 
f 16//16 13//13 18//18 
f 31//31 27//27 26//26 
f 22//22 23//23 24//24 
f 25//25 31//31 26//26 
f 29//29 31//31 25//25 
f 25//25 24//24 23//23 
f 25//25 23//23 11//11 
f 25//25 11//11 29//29 
f 29//29 11//11 32//32 
f 12//12 27//27 28//28 
f 31//31 29//29 19//19 
f 19//19 29//29 36//36 
f 39//39 19//19 36//36 
f 32//32 14//14 29//29 
f 14//14 36//36 29//29 
f 14//14 35//35 36//36 
f 31//31 20//20 33//33 
f 20//20 13//13 33//33 
f 19//19 20//20 31//31 
f 41//41 13//13 20//20 
f 18//18 13//13 41//41 
f 41//41 34//34 18//18 
f 41//41 42//42 34//34 
f 41//41 20//20 19//19 
f 42//42 41//41 19//19 
f 39//39 42//42 19//19 
f 39//39 38//38 42//42 
f 39//39 36//36 40//40 
f 40//40 36//36 35//35 
f 38//38 39//39 40//40 
f 50//50 44//44 43//43 
f 43//43 47//47 50//50 
f 44//44 49//49 48//48 
f 45//45 46//46 49//49 
f 45//45 49//49 44//44 
f 44//44 50//50 45//45 
# mm_gid 2
g mmGroup2
f 37//37 30//30 53//53 
f 30//30 52//52 53//53 
f 51//51 30//30 37//37 
f 37//37 54//54 51//51 
f 37//37 55//55 54//54 
f 54//54 55//55 56//56 
f 56//56 55//55 57//57 
f 56//56 58//58 54//54 
f 56//56 59//59 58//58 
f 59//59 56//56 60//60 
f 56//56 57//57 60//60 
f 55//55 61//61 57//57 
f 57//57 62//62 60//60 
f 61//61 62//62 57//57 
f 63//63 53//53 52//52 
f 63//63 64//64 53//53 
f 65//65 64//64 63//63 
f 37//37 53//53 55//55 
f 55//55 53//53 64//64 
f 61//61 55//55 64//64 
f 67//67 68//68 66//66 
f 64//64 65//65 69//69 
f 70//70 64//64 69//69 
f 70//70 69//69 71//71 
f 70//70 71//71 72//72 
f 64//64 70//70 61//61 
f 70//70 73//73 61//61 
f 74//74 72//72 71//71 
f 61//61 73//73 66//66 
f 75//75 59//59 60//60 
f 59//59 75//75 76//76 
f 62//62 75//75 60//60 
f 75//75 62//62 78//78 
f 77//77 79//79 80//80 
f 77//77 68//68 82//82 
f 86//86 82//82 84//84 
f 77//77 82//82 81//81 
f 68//68 77//77 61//61 
f 77//77 62//62 61//61 
f 62//62 77//77 80//80 
f 62//62 80//80 78//78 
f 68//68 67//67 84//84 
f 61//61 66//66 68//68 
f 84//84 67//67 85//85 
f 81//81 82//82 83//83 
f 84//84 82//82 68//68 
f 85//85 67//67 87//87 
f 87//87 67//67 88//88 
f 86//86 83//83 82//82 
f 84//84 85//85 86//86 
f 18//18 34//34 90//90 
f 18//18 90//90 89//89 
f 34//34 42//42 91//91 
f 34//34 91//91 90//90 
f 42//42 38//38 92//92 
f 42//42 92//92 91//91 
f 38//38 40//40 93//93 
f 38//38 93//93 92//92 
f 40//40 35//35 94//94 
f 40//40 94//94 93//93 
f 35//35 14//14 95//95 
f 35//35 95//95 94//94 
f 14//14 32//32 96//96 
f 14//14 96//96 95//95 
f 32//32 11//11 97//97 
f 32//32 97//97 96//96 
f 11//11 23//23 98//98 
f 11//11 98//98 97//97 
f 23//23 22//22 99//99 
f 23//23 99//99 98//98 
f 22//22 24//24 100//100 
f 22//22 100//100 99//99 
f 24//24 25//25 101//101 
f 24//24 101//101 100//100 
f 25//25 26//26 102//102 
f 25//25 102//102 101//101 
f 26//26 27//27 103//103 
f 26//26 103//103 102//102 
f 27//27 12//12 104//104 
f 27//27 104//104 103//103 
f 12//12 1//1 105//105 
f 12//12 105//105 104//104 
f 1//1 3//3 106//106 
f 1//1 106//106 105//105 
f 3//3 10//10 107//107 
f 3//3 107//107 106//106 
f 10//10 6//6 108//108 
f 10//10 108//108 107//107 
f 6//6 9//9 109//109 
f 6//6 109//109 108//108 
f 9//9 15//15 110//110 
f 9//9 110//110 109//109 
f 15//15 17//17 111//111 
f 15//15 111//111 110//110 
f 17//17 5//5 112//112 
f 17//17 112//112 111//111 
f 5//5 2//2 113//113 
f 5//5 113//113 112//112 
f 2//2 7//7 114//114 
f 2//2 114//114 113//113 
f 7//7 16//16 115//115 
f 7//7 115//115 114//114 
f 16//16 21//21 116//116 
f 16//16 116//116 115//115 
f 21//21 18//18 89//89 
f 21//21 89//89 116//116 
f 89//89 90//90 58//58 
f 89//89 58//58 59//59 
f 90//90 91//91 54//54 
f 90//90 54//54 58//58 
f 91//91 92//92 51//51 
f 91//91 51//51 54//54 
f 92//92 93//93 30//30 
f 92//92 30//30 51//51 
f 93//93 94//94 52//52 
f 93//93 52//52 30//30 
f 94//94 95//95 63//63 
f 94//94 63//63 52//52 
f 95//95 96//96 65//65 
f 95//95 65//65 63//63 
f 96//96 97//97 69//69 
f 96//96 69//69 65//65 
f 97//97 98//98 71//71 
f 97//97 71//71 69//69 
f 98//98 99//99 74//74 
f 98//98 74//74 71//71 
f 99//99 100//100 72//72 
f 99//99 72//72 74//74 
f 100//100 101//101 70//70 
f 100//100 70//70 72//72 
f 101//101 102//102 73//73 
f 101//101 73//73 70//70 
f 102//102 103//103 66//66 
f 102//102 66//66 73//73 
f 103//103 104//104 67//67 
f 103//103 67//67 66//66 
f 104//104 105//105 88//88 
f 104//104 88//88 67//67 
f 105//105 106//106 87//87 
f 105//105 87//87 88//88 
f 106//106 107//107 85//85 
f 106//106 85//85 87//87 
f 107//107 108//108 86//86 
f 107//107 86//86 85//85 
f 108//108 109//109 83//83 
f 108//108 83//83 86//86 
f 109//109 110//110 81//81 
f 109//109 81//81 83//83 
f 110//110 111//111 77//77 
f 110//110 77//77 81//81 
f 111//111 112//112 79//79 
f 111//111 79//79 77//77 
f 112//112 113//113 80//80 
f 112//112 80//80 79//79 
f 113//113 114//114 78//78 
f 113//113 78//78 80//80 
f 114//114 115//115 75//75 
f 114//114 75//75 78//78 
f 115//115 116//116 76//76 
f 115//115 76//76 75//75 
f 116//116 89//89 59//59 
f 116//116 59//59 76//76 
f 119//119 117//117 118//118 
f 117//117 119//119 120//120 
f 117//117 120//120 121//121 
f 119//119 122//122 120//120 
f 124//124 118//118 123//123 
f 118//118 124//124 119//119 
f 46//46 45//45 126//126 
f 46//46 126//126 125//125 
f 45//45 50//50 127//127 
f 45//45 127//127 126//126 
f 50//50 47//47 128//128 
f 50//50 128//128 127//127 
f 47//47 43//43 129//129 
f 47//47 129//129 128//128 
f 43//43 44//44 130//130 
f 43//43 130//130 129//129 
f 44//44 48//48 131//131 
f 44//44 131//131 130//130 
f 48//48 49//49 132//132 
f 48//48 132//132 131//131 
f 49//49 46//46 125//125 
f 49//49 125//125 132//132 
f 125//125 126//126 117//117 
f 125//125 117//117 121//121 
f 126//126 127//127 118//118 
f 126//126 118//118 117//117 
f 127//127 128//128 123//123 
f 127//127 123//123 118//118 
f 128//128 129//129 124//124 
f 128//128 124//124 123//123 
f 129//129 130//130 119//119 
f 129//129 119//119 124//124 
f 130//130 131//131 122//122 
f 130//130 122//122 119//119 
f 131//131 132//132 120//120 
f 131//131 120//120 122//122 
f 132//132 125//125 121//121 
f 132//132 121//121 120//120 
